<?xml version="1.0" encoding="UTF-8" standalone="no"?>
<svg
   width="250"
   height="72"
   viewBox="0 0 250 72"
   fill="none"
   version="1.1"
   id="svg4"
   sodipodi:docname="logo.svg"
   inkscape:export-filename="C:\Users\maks\Desktop\logo.png"
   inkscape:export-xdpi="96"
   inkscape:export-ydpi="96"
   xmlns:inkscape="http://www.inkscape.org/namespaces/inkscape"
   xmlns:sodipodi="http://sodipodi.sourceforge.net/DTD/sodipodi-0.dtd"
   xmlns="http://www.w3.org/2000/svg"
   xmlns:svg="http://www.w3.org/2000/svg">
  <sodipodi:namedview
     id="namedview4"
     pagecolor="#ffffff"
     bordercolor="#000000"
     borderopacity="0.25"
     inkscape:showpageshadow="2"
     inkscape:pageopacity="0.0"
     inkscape:pagecheckerboard="0"
     inkscape:deskcolor="#d1d1d1">
    <inkscape:page
       x="0"
       y="0"
       width="250"
       height="72"
       id="page2"
       margin="0"
       bleed="0" />
  </sodipodi:namedview>
  <g
     clip-path="url(#clip0_850_2716)"
     id="g4"
     style="fill:#384256;fill-opacity:1">
    <path
       fill-rule="evenodd"
       clip-rule="evenodd"
       d="m 241.727,55.5393 h 0.697 c 0.259,-0.0194 0.517,0.049 0.732,0.1941 0.076,0.0655 0.136,0.1469 0.178,0.2383 0.041,0.0914 0.061,0.1907 0.06,0.291 0.003,0.092 -0.013,0.1835 -0.048,0.2687 -0.035,0.0851 -0.088,0.1619 -0.155,0.2253 -0.218,0.1699 -0.492,0.2518 -0.767,0.2293 h -0.697 z m 0,-0.8115 v -1.6849 c 0.002,-0.0163 0,-0.0326 -0.006,-0.0479 -0.006,-0.0153 -0.015,-0.029 -0.027,-0.0401 -0.012,-0.0111 -0.026,-0.0193 -0.042,-0.0239 -0.016,-0.0046 -0.032,-0.0056 -0.048,-0.0028 h -1.596 c -0.097,0 -0.142,0.0441 -0.142,0.1323 v 0.5117 c -0.003,0.018 -0.001,0.0366 0.004,0.054 0.006,0.0175 0.015,0.0334 0.028,0.0463 0.013,0.013 0.029,0.0227 0.047,0.0282 0.017,0.0056 0.036,0.0069 0.054,0.0038 h 0.591 v 3.308 h -0.591 c -0.088,0 -0.133,0 -0.133,0.1235 v 0.5469 c 0,0.1059 0.053,0.1147 0.133,0.1147 h 2.354 c 0.607,0.0482 1.211,-0.1137 1.711,-0.4587 0.154,-0.1383 0.274,-0.309 0.354,-0.4997 0.079,-0.1907 0.115,-0.3967 0.105,-0.603 0.008,-0.2208 -0.038,-0.4402 -0.135,-0.6387 -0.097,-0.1985 -0.241,-0.37 -0.421,-0.4992 -0.456,-0.2734 -0.985,-0.4025 -1.517,-0.3705 z m 3.369,-1.0233 v 3.9431 c 0,0.0971 0,0.15 0.159,0.15 h 1.579 c 0.106,0 0.123,0 0.123,-0.1323 v -0.5381 c 0,-0.0706 0,-0.1147 -0.114,-0.1147 h -0.618 v -3.308 h 0.618 c 0.097,0 0.114,-0.0618 0.114,-0.1323 v -0.5381 c 0,-0.0706 0,-0.1059 -0.106,-0.1059 h -2.416 c -0.106,0 -0.15,0.0441 -0.15,0.1323 v 0.5117 c 0,0.0882 0.044,0.1323 0.15,0.1323 z m -8.449,0.0706 c 0.249,-0.0013 0.49,0.0793 0.688,0.2293 0.106,0.1059 0.424,0.4323 0.424,1.4644 0.043,0.5126 -0.108,1.0228 -0.424,1.429 -0.186,0.1592 -0.425,0.244 -0.67,0.2382 -0.273,0.0088 -0.539,-0.0893 -0.741,-0.2735 -0.114,-0.1058 -0.397,-0.4499 -0.397,-1.4114 -0.04,-0.5191 0.114,-1.0347 0.432,-1.4467 0.198,-0.15 0.44,-0.2306 0.688,-0.2293 z m -1.517,0.1058 v -0.2117 c 0.017,-0.3674 0.157,-0.7184 0.397,-0.9968 0.281,-0.2978 0.629,-0.5245 1.015,-0.6616 l 2.143,-0.8821 c 0.07,0 0.229,-0.1059 0.15,-0.247 l -0.283,-0.494 c -0.079,-0.1412 -0.238,-0.0882 -0.317,-0.053 l -1.87,0.7587 c -0.543,0.2024 -1.025,0.5393 -1.402,0.9791 -0.543,0.7692 -0.788,1.71 -0.688,2.6464 -0.096,0.9798 0.195,1.9582 0.811,2.7258 0.431,0.3611 0.982,0.5468 1.544,0.5205 0.553,0.0258 1.096,-0.1604 1.517,-0.5205 0.265,-0.2531 0.473,-0.5608 0.609,-0.9019 0.135,-0.3411 0.195,-0.7075 0.176,-1.074 0.022,-0.3566 -0.029,-0.7139 -0.148,-1.0505 -0.12,-0.3366 -0.307,-0.6454 -0.549,-0.9079 -0.39,-0.3601 -0.907,-0.5504 -1.438,-0.5293 -0.328,-0.0206 -0.656,0.051 -0.946,0.2069 -0.29,0.1559 -0.53,0.3898 -0.694,0.6753 z m -3.183,1.4467 c 0,1.2438 -0.344,1.7643 -1.112,1.7643 -0.767,0 -1.111,-0.5646 -1.111,-1.7643 0,-1.1997 0.362,-1.7643 1.111,-1.7643 0.75,0 1.112,0.5734 1.112,1.7643 z m 1.19,0 c 0,-1.6319 -0.837,-2.5935 -2.266,-2.5935 -1.429,0 -2.346,0.9792 -2.346,2.6464 0,1.6673 0.838,2.5759 2.284,2.5759 1.446,0 2.364,-0.988 2.364,-2.5935 z m -8.819,-1.3144 c 0.301,-0.2598 0.679,-0.4146 1.076,-0.441 0.661,0 0.926,0.5028 0.926,1.7025 0,1.3408 -0.265,1.8172 -1.014,1.8172 -0.351,-0.0029 -0.694,-0.107 -0.988,-0.2999 z m -1.764,-1.1203 c -0.106,0 -0.159,0 -0.159,0.1323 v 0.5205 c 0,0.097 0.053,0.1323 0.159,0.1323 h 0.573 c 0.081,0.2443 0.114,0.5019 0.097,0.7587 v 4.5694 h -0.599 c -0.097,0 -0.124,0 -0.124,0.1323 v 0.5117 c 0,0.097 0,0.1411 0.124,0.1411 h 2.381 c 0.115,0 0.132,0 0.132,-0.1411 v -0.5117 c 0,-0.097 0,-0.1323 -0.132,-0.1323 h -0.653 v -1.4114 c 0.362,0.2366 0.786,0.3595 1.217,0.3528 1.262,0 1.941,-0.9438 1.941,-2.6464 0,-1.7025 -0.618,-2.4964 -1.817,-2.4964 -0.552,0.0127 -1.084,0.2047 -1.517,0.5469 -0.097,-0.247 -0.124,-0.3881 -0.335,-0.3881 z m -4.409,0.8204 h 1.763 v 3.9255 c -10e-4,0.0158 0.001,0.0316 0.006,0.0466 0.006,0.0149 0.014,0.0286 0.025,0.0403 0.01,0.0116 0.024,0.0208 0.038,0.0271 0.015,0.0063 0.03,0.0095 0.046,0.0095 h 1.632 c 0.097,0 0.105,-0.0618 0.105,-0.1147 v -0.5469 c 0.002,-0.0158 0,-0.0317 -0.006,-0.0466 -0.005,-0.015 -0.013,-0.0287 -0.024,-0.0403 -0.011,-0.0116 -0.024,-0.0208 -0.038,-0.0271 -0.015,-0.0063 -0.03,-0.0095 -0.046,-0.0095 h -0.609 v -3.2727 h 0.609 c 0.07,0 0.114,0 0.114,-0.1147 v -0.5557 c 0,-0.0882 0,-0.1059 -0.105,-0.1059 h -5.292 c -0.016,0 -0.031,0.0032 -0.046,0.0095 -0.014,0.0063 -0.028,0.0156 -0.038,0.0272 -0.011,0.0116 -0.019,0.0253 -0.025,0.0402 -0.005,0.015 -0.007,0.0308 -0.006,0.0466 v 0.5293 c 0,0.0794 0.045,0.1235 0.133,0.1235 h 0.599 v 3.308 h -0.59 c -0.097,0 -0.142,0 -0.142,0.1323 v 0.5381 c 0,0.0882 0.08,0.1147 0.142,0.1147 h 2.328 c 0.097,0 0.123,0 0.123,-0.1147 V 57.136 c 0,-0.0971 0,-0.1235 -0.15,-0.1235 h -0.511 z m -8.82,-2.7522 c 0,-0.0618 -0.088,-0.1324 -0.247,-0.1147 l -0.546,0.0794 c -0.08,0 -0.15,0.0882 -0.089,0.2823 v 0.1058 c 0.048,0.2054 0.159,0.3905 0.318,0.5293 0.34,0.2576 0.755,0.397 1.182,0.397 0.426,0 0.841,-0.1394 1.181,-0.397 0.155,-0.1439 0.268,-0.3267 0.327,-0.5293 v -0.1058 c 0.053,-0.1941 0,-0.2735 -0.088,-0.2823 l -0.556,-0.0794 c -0.15,0 -0.221,0.0529 -0.238,0.1147 v 0.0882 c -0.034,0.1286 -0.094,0.2488 -0.177,0.3528 -0.123,0.1034 -0.279,0.16 -0.441,0.16 -0.161,0 -0.317,-0.0566 -0.441,-0.16 -0.082,-0.104 -0.142,-0.2242 -0.176,-0.3528 z m 2.822,6.0161 v -3.9255 c 0,-0.0327 -0.013,-0.0642 -0.036,-0.0873 -0.023,-0.0232 -0.054,-0.0362 -0.087,-0.0362 h -0.82 c -0.034,-0.0052 -0.068,5e-4 -0.099,0.0164 -0.03,0.0159 -0.054,0.0411 -0.069,0.0718 l -1.499,2.4259 c -0.169,0.2855 -0.322,0.58 -0.459,0.8821 0,-0.2382 0,-0.8821 0,-1.1115 v -2.17 c 0,-0.0529 0,-0.1147 -0.105,-0.1147 h -1.641 c -0.097,0 -0.106,0.0618 -0.106,0.1147 v 0.5469 c 0,0.0529 0,0.1147 0.106,0.1147 h 0.635 v 3.9696 c -0.001,0.0158 10e-4,0.0316 0.006,0.0466 0.005,0.0149 0.014,0.0286 0.024,0.0402 0.011,0.0116 0.024,0.0209 0.039,0.0272 0.014,0.0063 0.03,0.0095 0.046,0.0095 h 0.935 c 0.105,0 0.123,0 0.167,-0.1059 l 1.508,-2.4082 c 0.166,-0.286 0.316,-0.5804 0.45,-0.8821 0,0.3264 0,0.8115 0,1.1026 v 2.1348 c 0,0.0794 0,0.1147 0.132,0.1147 h 1.579 c 0.106,0 0.15,0 0.15,-0.1323 v -0.5293 c 0,-0.1235 -0.062,-0.1235 -0.15,-0.1235 z m -8.96,-2.1612 c 0.079,-0.8822 0.406,-1.3144 1.067,-1.3144 0.662,0 0.97,0.4234 0.988,1.3144 z m 2.822,1.9407 c -0.005,-0.0153 -0.014,-0.0291 -0.025,-0.0404 -0.012,-0.0114 -0.026,-0.0199 -0.041,-0.025 -0.015,-0.0051 -0.032,-0.0067 -0.048,-0.0045 -0.016,0.0022 -0.031,0.008 -0.044,0.0169 -0.418,0.2179 -0.879,0.3386 -1.35,0.3529 -0.882,0 -1.296,-0.5028 -1.332,-1.4732 h 3.202 c 0.194,0 0.194,-0.1411 0.194,-0.3705 0,-1.5966 -0.759,-2.4788 -2.117,-2.4788 -1.358,0 -2.302,1.041 -2.302,2.6464 -0.043,0.3319 -0.013,0.6693 0.089,0.9881 0.103,0.3187 0.274,0.6109 0.503,0.8554 0.228,0.2446 0.508,0.4355 0.819,0.5591 0.311,0.1236 0.645,0.1767 0.979,0.1556 0.598,-3e-4 1.188,-0.1424 1.72,-0.4146 0.141,-0.0705 0.194,-0.1235 0.124,-0.247 z m -6.764,-3.0875 v 3.2815 h -1.499 v -3.8902 c 0,-0.0882 0,-0.1323 -0.142,-0.1323 h -1.464 c -0.105,0 -0.149,0.0441 -0.149,0.1323 v 0.5293 c 0,0.0529 0,0.1147 0.105,0.1147 h 0.635 v 3.2815 h -1.499 v -3.9255 c 0,-0.0882 -0.044,-0.1323 -0.15,-0.1323 h -1.578 c -0.097,0 -0.142,0.0441 -0.142,0.1323 v 0.5117 c 0,0.0617 0,0.1323 0.115,0.1323 h 0.626 v 3.308 h -0.608 c -0.089,0 -0.133,0 -0.133,0.1235 v 0.5293 c 0,0.0882 0.045,0.1323 0.142,0.1323 h 7.575 c 0.097,0 0.159,0 0.159,-0.1323 v -0.5205 c 0,-0.0882 -0.044,-0.1323 -0.15,-0.1323 h -0.591 v -3.308 h 0.626 c 0.016,0.0013 0.031,-7e-4 0.046,-0.006 0.014,-0.0053 0.027,-0.0137 0.038,-0.0246 0.011,-0.0109 0.02,-0.0241 0.025,-0.0387 0.005,-0.0145 0.007,-0.03 0.006,-0.0454 v -0.5469 c 0,-0.0706 0,-0.1147 -0.123,-0.1147 h -2.373 c -0.017,-0.0016 -0.035,9e-4 -0.051,0.0071 -0.016,0.0062 -0.031,0.0161 -0.043,0.0289 -0.012,0.0127 -0.021,0.0281 -0.026,0.0448 -0.005,0.0167 -0.006,0.0343 -0.003,0.0515 v 0.5117 c -0.003,0.0172 -0.002,0.0348 0.003,0.0515 0.005,0.0167 0.014,0.0321 0.026,0.0448 0.012,0.0128 0.027,0.0227 0.043,0.0289 0.016,0.0062 0.034,0.0086 0.051,0.0071 z m -7.056,3.1492 c 0,-0.0794 -0.07,-0.0706 -0.158,0 -0.333,0.1744 -0.701,0.271 -1.076,0.2823 -0.829,0 -1.209,-0.5381 -1.209,-1.7643 0,-1.2261 0.406,-1.7642 1.235,-1.7642 0.182,0.0097 0.362,0.0515 0.529,0.1235 v 0.6616 c 0,0.097 0,0.1235 0.133,0.1235 h 0.661 c 0.097,0 0.132,0 0.132,-0.1235 v -1.0762 c 0.004,-0.0403 -0.005,-0.0806 -0.026,-0.1154 -0.02,-0.0348 -0.051,-0.0623 -0.088,-0.0787 -0.418,-0.2208 -0.886,-0.3301 -1.358,-0.3176 -1.491,0 -2.408,1.0321 -2.408,2.6994 0,1.6672 0.829,2.4787 2.266,2.4787 0.536,0.0067 1.065,-0.1142 1.544,-0.3528 0.114,-0.0618 0.114,-0.1059 0.07,-0.2029 z m -9.63,-1.2791 h 0.697 c 0.261,-0.0207 0.522,0.0477 0.74,0.1941 0.076,0.0655 0.137,0.1469 0.178,0.2383 0.041,0.0914 0.062,0.1907 0.06,0.291 0.003,0.092 -0.013,0.1835 -0.048,0.2687 -0.035,0.0851 -0.088,0.1619 -0.154,0.2253 -0.221,0.1713 -0.498,0.2532 -0.776,0.2293 h -0.697 z m 0,-0.8115 v -1.6849 c 0.001,-0.0154 -0.001,-0.0309 -0.006,-0.0454 -0.005,-0.0146 -0.014,-0.0278 -0.025,-0.0387 -0.011,-0.0109 -0.024,-0.0193 -0.038,-0.0246 -0.015,-0.0053 -0.03,-0.0073 -0.046,-0.006 h -1.596 c -0.097,0 -0.141,0.0441 -0.141,0.1323 v 0.5117 c 0,0.0794 0,0.1323 0.123,0.1323 h 0.6 v 3.308 h -0.6 c -0.016,-0.0013 -0.033,9e-4 -0.049,0.0067 -0.015,0.0057 -0.029,0.0148 -0.041,0.0265 -0.012,0.0117 -0.021,0.0259 -0.027,0.0415 -0.005,0.0156 -0.008,0.0322 -0.006,0.0488 v 0.5469 c 0,0.1059 0.053,0.1147 0.123,0.1147 h 2.364 c 0.606,0.0482 1.21,-0.1137 1.711,-0.4587 0.151,-0.1392 0.271,-0.3102 0.348,-0.5009 0.078,-0.1906 0.113,-0.3962 0.102,-0.6018 0.007,-0.2198 -0.038,-0.4382 -0.134,-0.6364 -0.095,-0.1982 -0.237,-0.3703 -0.413,-0.5015 -0.457,-0.2734 -0.986,-0.4025 -1.517,-0.3705 z m 3.369,-1.0233 v 3.9431 c 0,0.0971 0.053,0.15 0.159,0.15 h 1.578 c 0.115,0 0.124,0 0.124,-0.1323 v -0.5381 c 0,-0.0706 0,-0.1147 -0.106,-0.1147 h -0.618 v -3.308 h 0.618 c 0.097,0 0.106,-0.0618 0.106,-0.1323 v -0.5381 c 0,-0.0706 0,-0.1059 -0.097,-0.1059 h -2.399 c -0.097,0 -0.141,0.0441 -0.141,0.1323 v 0.5117 c 0,0.0882 0.044,0.1323 0.141,0.1323 z m -8.961,1.9583 h 0.776 c 0.26,-0.0201 0.521,0.035 0.75,0.1588 0.082,0.0616 0.147,0.1417 0.192,0.2338 0.044,0.092 0.066,0.1933 0.064,0.2955 0.002,0.0833 -0.014,0.166 -0.048,0.2423 -0.033,0.0762 -0.083,0.1441 -0.146,0.1988 -0.123,0.0977 -0.265,0.17 -0.416,0.2124 -0.152,0.0424 -0.31,0.0541 -0.466,0.0345 h -0.741 z m 0,-1.9671 h 0.75 c 0.21,-0.0198 0.421,0.02 0.609,0.1146 0.084,0.0483 0.153,0.1195 0.198,0.2055 0.045,0.0859 0.065,0.1829 0.057,0.2797 0.003,0.086 -0.016,0.1714 -0.054,0.2483 -0.039,0.077 -0.096,0.1432 -0.166,0.1928 -0.187,0.1107 -0.401,0.1658 -0.618,0.1588 h -0.776 z m 0.882,4.1019 c 0.579,0.0364 1.152,-0.1357 1.614,-0.4852 0.12,-0.1138 0.217,-0.2505 0.283,-0.4019 0.067,-0.1515 0.103,-0.3148 0.105,-0.4802 0.012,-0.165 -0.015,-0.3303 -0.078,-0.4833 -0.062,-0.153 -0.159,-0.2895 -0.283,-0.3989 -0.181,-0.1623 -0.404,-0.2695 -0.644,-0.3087 0.163,-0.0498 0.313,-0.1341 0.441,-0.247 0.115,-0.1031 0.207,-0.2296 0.269,-0.3711 0.063,-0.1415 0.094,-0.2947 0.092,-0.4493 0.003,-0.1655 -0.029,-0.3296 -0.095,-0.4816 -0.065,-0.1521 -0.162,-0.2885 -0.284,-0.4005 -0.434,-0.2873 -0.954,-0.4179 -1.473,-0.3705 h -2.566 c -0.097,0 -0.141,0.0441 -0.141,0.1323 v 0.5116 c 0,0.0883 0,0.1324 0.141,0.1324 h 0.6 v 3.9607 c 0,0.0883 0.044,0.1324 0.141,0.1324 z m 39.475,-13.7613 h 0.697 c 0.262,-0.0244 0.524,0.0443 0.741,0.1941 0.067,0.0672 0.12,0.1469 0.157,0.2347 0.036,0.0878 0.055,0.1819 0.055,0.2769 0,0.095 -0.019,0.1891 -0.055,0.2769 -0.037,0.0878 -0.09,0.1676 -0.157,0.2348 -0.222,0.1697 -0.498,0.2514 -0.776,0.2293 h -0.697 z m 0,-0.8116 v -1.6936 c 0,-0.0618 -0.044,-0.1059 -0.123,-0.1059 h -1.588 c -0.105,0 -0.149,0.0441 -0.149,0.1323 v 0.5028 c 0,0.0794 0,0.1324 0.141,0.1324 h 0.591 v 3.3168 h -0.591 c -0.097,0 -0.141,0 -0.141,0.1146 v 0.5558 c 0,0.097 0.061,0.1058 0.141,0.1058 h 2.354 c 0.607,0.0543 1.213,-0.1082 1.711,-0.4587 0.153,-0.1369 0.273,-0.3061 0.353,-0.4953 0.079,-0.1892 0.115,-0.3936 0.106,-0.5985 0.007,-0.2207 -0.039,-0.4398 -0.136,-0.6382 -0.097,-0.1984 -0.241,-0.37 -0.42,-0.4998 -0.455,-0.2764 -0.985,-0.4058 -1.517,-0.3705 z m 3.378,-1.032 v 3.9431 c 0,0.1058 0,0.1499 0.15,0.1499 h 1.588 c 0.105,0 0.114,0 0.114,-0.1234 v -0.5382 c 0,-0.0705 0,-0.1146 -0.106,-0.1146 h -0.626 v -3.3168 h 0.626 c 0.097,0 0.106,-0.0618 0.106,-0.1324 v -0.5381 c 0,-0.0705 0,-0.097 -0.097,-0.097 h -2.425 c -0.097,0 -0.141,0.0441 -0.141,0.1323 v 0.5028 c 0,0.0971 0.044,0.1324 0.141,0.1324 z m -6.782,3.4314 c 0,-0.0529 0,-0.1146 -0.115,-0.1146 h -0.696 v -3.2727 h 0.785 v 0.8821 c 0,0.0706 0,0.1147 0.123,0.1147 h 0.617 c 0.106,0 0.115,-0.0618 0.115,-0.1059 v -1.6055 c 0,-0.0794 0,-0.097 -0.115,-0.097 h -4.153 c -0.08,0 -0.124,0 -0.124,0.1059 v 1.6054 c 0,0.0794 0.044,0.1147 0.132,0.1147 h 0.591 c 0.097,0 0.115,0 0.115,-0.1058 v -0.8822 h 0.785 v 3.2727 h -0.67 c -0.018,-0.003 -0.037,-0.0018 -0.054,0.0038 -0.018,0.0056 -0.034,0.0152 -0.047,0.0282 -0.013,0.013 -0.022,0.0288 -0.028,0.0463 -0.005,0.0175 -0.007,0.036 -0.004,0.0541 v 0.5292 c 0,0.0882 0.053,0.1147 0.141,0.1147 h 2.461 c 0.106,0 0.141,0 0.141,-0.1235 z m -7.39,-1.4643 h 0.414 c 0.171,-0.0112 0.342,0.0255 0.494,0.1059 0.129,0.1134 0.218,0.2647 0.256,0.4322 l 0.211,0.741 c 0.046,0.2544 0.158,0.492 0.327,0.6881 0.144,0.1207 0.312,0.211 0.492,0.2656 0.18,0.0546 0.37,0.0722 0.557,0.0519 0.115,0 0.212,0 0.247,-0.1146 l 0.168,-0.547 c 0.044,-0.1588 0,-0.1587 -0.124,-0.1852 h -0.132 c -0.103,-0.0155 -0.198,-0.0618 -0.273,-0.1326 -0.076,-0.0709 -0.128,-0.1631 -0.15,-0.2644 l -0.274,-0.7498 c -0.047,-0.1913 -0.152,-0.3636 -0.3,-0.494 -0.126,-0.1176 -0.287,-0.1917 -0.458,-0.2117 0.153,-0.019 0.298,-0.0835 0.414,-0.1852 0.136,-0.1199 0.229,-0.281 0.265,-0.4588 l 0.167,-0.5204 c 0.026,-0.1142 0.084,-0.2184 0.168,-0.2999 0.085,-0.0654 0.185,-0.1079 0.291,-0.1235 h 0.159 c 0.062,0 0.185,0 0.15,-0.15 l -0.177,-0.5822 c 0,-0.0794 -0.132,-0.0882 -0.203,-0.0882 -0.334,0.0044 -0.659,0.1157 -0.926,0.3176 -0.197,0.1905 -0.333,0.4366 -0.388,0.7057 l -0.123,0.4851 c -0.026,0.171 -0.106,0.3289 -0.229,0.4499 -0.128,0.0991 -0.289,0.1463 -0.45,0.1323 h -0.494 v -1.8877 c 0.002,-0.0163 -0.001,-0.0327 -0.006,-0.0479 -0.006,-0.0153 -0.015,-0.029 -0.027,-0.0401 -0.012,-0.0111 -0.027,-0.0193 -0.042,-0.0239 -0.016,-0.0046 -0.032,-0.0056 -0.049,-0.0028 h -1.622 c -0.106,0 -0.106,0.097 -0.106,0.1323 v 0.5293 c 0,0.0882 0.044,0.1059 0.115,0.1059 h 0.617 v 3.9784 c 0,0.0794 0.044,0.1146 0.132,0.1146 h 0.882 c 0.106,0 0.115,-0.0617 0.115,-0.1058 z m -2.364,-2.6464 c 0,-0.0882 -0.044,-0.1323 -0.141,-0.1323 h -1.87 c -0.106,0 -0.15,0.0441 -0.15,0.1323 v 0.5205 c 0,0.0882 0,0.1235 0.133,0.1235 h 0.388 l -0.759,2.7963 c -0.044,0.1412 -0.132,0.5734 -0.194,0.8116 -0.05,-0.2602 -0.118,-0.5166 -0.203,-0.7675 l -0.996,-2.7963 h 0.388 c 0.097,0 0.132,0 0.132,-0.1235 v -0.5205 c 0,-0.0882 0,-0.1323 -0.132,-0.1323 h -1.888 c -0.097,0 -0.132,0.0441 -0.132,0.1323 v 0.5205 c 0,0.0882 0,0.1235 0.132,0.1235 h 0.441 l 1.535,3.9784 c 0.044,0.097 0.053,0.1058 0.176,0.1058 h 0.424 l -0.177,0.5734 c -0.032,0.2058 -0.141,0.3917 -0.305,0.5208 -0.163,0.1291 -0.369,0.192 -0.577,0.1761 -0.306,-0.0082 -0.607,-0.0834 -0.882,-0.2205 -0.079,0 -0.105,-0.0618 -0.167,0.0529 l -0.282,0.4852 c -0.013,0.0173 -0.021,0.0372 -0.024,0.0581 -0.004,0.0209 -0.002,0.0423 0.004,0.0626 0.006,0.0203 0.016,0.0391 0.03,0.0548 0.014,0.0158 0.032,0.0281 0.051,0.0362 0.417,0.2287 0.883,0.3528 1.359,0.3617 0.366,0.018 0.727,-0.093 1.021,-0.3138 0.293,-0.2208 0.5,-0.5374 0.584,-0.8947 0.158,-0.4058 0.3,-0.8293 0.432,-1.235 l 1.19,-3.802 h 0.406 c 0.097,0 0.141,0 0.141,-0.1235 z m -7.391,0.6793 v 3.2462 h -1.71 c 0.21,-0.4157 0.365,-0.8577 0.458,-1.3144 0.106,-0.4748 0.156,-0.9603 0.15,-1.4467 v -0.4851 z m 1.121,3.2727 v -3.9343 c 0,-0.0883 -0.045,-0.1059 -0.124,-0.1059 h -3.669 c -0.114,0 -0.123,0.0794 -0.123,0.1323 v 0.5028 c 0,0.0794 0,0.1324 0.123,0.1324 h 0.591 v 0.1764 c 0.008,0.5674 -0.036,1.1344 -0.132,1.6937 -0.111,0.5103 -0.304,0.9991 -0.573,1.4467 h -0.353 c -0.124,0 -0.159,0 -0.159,0.1411 v 1.9583 c 0,0.0706 0,0.1324 0.15,0.1324 h 0.758 c 0.133,0 0.15,-0.0618 0.15,-0.1324 v -1.3232 h 3.017 v 1.3232 c 0,0.0971 0,0.1324 0.141,0.1324 h 0.74 c 0.098,0 0.142,-0.0441 0.142,-0.1324 v -1.9583 c 0,-0.1323 0,-0.1411 -0.15,-0.1411 z m -6.236,-1.6849 c 0,1.235 -0.344,1.7643 -1.111,1.7643 -0.767,0 -1.12,-0.5646 -1.12,-1.7643 0,-1.1997 0.37,-1.7643 1.12,-1.7643 0.75,0 1.155,0.6175 1.155,1.8084 z m 1.191,0 c 0,-1.6231 -0.838,-2.5847 -2.267,-2.5847 -1.428,0 -2.346,0.9792 -2.346,2.5935 0,1.6143 0.882,2.5758 2.276,2.5758 1.393,0 2.381,-0.9086 2.381,-2.514 z m -8.819,-1.3056 c 0.301,-0.2598 0.679,-0.4146 1.076,-0.441 0.661,0 0.926,0.5028 0.926,1.6937 0,1.3408 -0.265,1.826 -1.015,1.826 -0.351,8e-4 -0.695,-0.1037 -0.987,-0.2999 z m -1.764,-1.1203 c -0.115,0 -0.159,0 -0.159,0.1323 v 0.5205 c 0,0.097 0.044,0.1235 0.159,0.1235 h 0.564 c 0.082,0.2472 0.115,0.5078 0.097,0.7675 v 4.5694 h -0.6 c -0.097,0 -0.123,0 -0.123,0.1323 v 0.5117 c 0,0.097 0,0.1323 0.123,0.1323 h 2.382 c 0.114,0 0.132,0 0.132,-0.1323 v -0.4411 c 0,-0.1059 0,-0.1323 -0.132,-0.1323 h -0.653 v -1.4555 c 0.362,0.234 0.786,0.3538 1.217,0.344 1.261,0 1.932,-0.9351 1.932,-2.6464 0,-1.7113 -0.609,-2.4964 -1.764,-2.4964 -0.552,0.0113 -1.085,0.2035 -1.517,0.5469 -0.097,-0.247 -0.124,-0.3882 -0.335,-0.3882 z m -1.641,4.0578 v -5.1693 h 0.635 c 0.089,0 0.186,0 0.186,-0.1587 V 39.608 c 0,-0.1323 -0.053,-0.1588 -0.186,-0.1588 h -5.988 c -0.097,0 -0.123,0.0441 -0.123,0.1323 v 0.5029 c 0,0.097 0,0.1587 0.158,0.1587 h 0.644 v 5.2399 h -0.635 c -0.159,0 -0.167,0.0706 -0.167,0.1676 v 0.4323 c 0,0.097 0,0.1676 0.167,0.1676 h 2.434 c 0.133,0 0.194,0 0.194,-0.1676 v -0.4676 c 0.003,-0.0219 0.001,-0.0441 -0.006,-0.065 -0.007,-0.0209 -0.019,-0.0401 -0.034,-0.0561 -0.015,-0.016 -0.033,-0.0284 -0.054,-0.0365 -0.02,-0.008 -0.042,-0.0114 -0.064,-0.01 h -0.644 v -5.1163 h 2.293 v 5.1516 h -0.653 c -0.15,0 -0.15,0.097 -0.15,0.1676 v 0.4323 c 0,0.1235 0.044,0.1676 0.177,0.1676 h 2.451 c 0.133,0 0.186,0 0.186,-0.1676 v -0.4676 c 0,-0.1235 -0.053,-0.1676 -0.186,-0.1676 z"
       fill="#38AEE5"
       id="path1"
       style="fill:#384256;fill-opacity:1" />
    <path
       fill-rule="evenodd"
       clip-rule="evenodd"
       d="m 33.9009,16.4165 h 0.6879 l 0.2999,-0.0529 c 0.302,-0.0589 0.5974,-0.1475 0.8819,-0.2647 0.7054,-0.2932 1.3311,-0.7497 1.8256,-1.332 0.4155,-0.4915 0.7217,-1.0659 0.8981,-1.6849 0.1764,-0.6191 0.219,-1.2686 0.1249,-1.9054 C 38.5296,10.7695 38.3966,10.3732 38.2224,9.99457 38.0782,9.6339 37.9103,9.28322 37.7197,8.94483 L 36.679,6.88064 C 35.8786,5.49977 35.2169,4.04303 34.7035,2.53172 34.58,2.12594 34.4565,1.74662 34.3507,1.29674 L 34.1038,0 c 0,0.0705706 -0.097,0.564565 -0.1235,0.688064 -0.1164,0.638366 -0.2725,1.268846 -0.4674,1.887766 -0.1235,0.40578 -0.2822,0.7851 -0.4322,1.17324 -0.3175,0.82038 -0.635,1.39377 -1.0142,2.17004 -0.732,1.47316 -2.3547,3.88139 -2.5752,5.38979 -0.1044,0.9158 0.0806,1.8413 0.5291,2.6464 0.5518,1.0437 1.4881,1.8315 2.6105,2.1966 0.4135,0.1302 0.8389,0.2189 1.27,0.2646 z"
       fill="#38AEE5"
       id="path2"
       style="fill:#384256;fill-opacity:1" />
    <path
       fill-rule="evenodd"
       clip-rule="evenodd"
       d="m 95.9445,16.2576 c 0.9878,-0.9615 4.5335,-1.9583 6.9935,-1.676 1.693,0.194 2.646,1.182 0.459,1.8525 -2.456,0.6073 -5.0286,0.5464 -7.4525,-0.1765 z m -13.9256,6.8895 -1.0583,-0.0794 c 0.6173,2.1259 1.8344,4.2166 0.5115,6.7483 -1.7639,3.2904 -8.493,2.0642 -11.227,-1.8789 -1.0759,-1.5526 -2.4165,-3.1404 -2.8839,-5.5575 -1.1553,-5.8309 4.9565,-7.057 9.9217,-6.4925 4.9653,0.5646 9.7012,1.5526 14.64,2.1789 -0.3528,0.5293 -1.7638,1.9848 -2.1343,7.8863 -0.1354,3.3761 -0.0795,6.7571 0.1676,10.1269 0.1411,3.3344 -0.2028,6.8188 -2.7604,7.701 -2.5576,0.8821 -7.0554,-0.494 -7.8051,-2.4082 0.8819,0.0882 2.1607,0.2205 1.6492,-1.7643 -0.7408,-2.8581 -6.3146,-5.2928 -7.3288,-3.308 -1.2435,2.4788 4.3391,6.4748 6.7115,7.5422 3.3689,1.5085 9.0838,1.7114 11.4033,-0.7674 5.5209,-5.9103 -0.3528,-17.7221 2.2225,-24.8144 3.4483,0.097 9.6126,0.4587 12.1356,-1.5967 2.072,-1.8613 -1.341,-2.964 -2.805,-3.1757 -2.077,-0.3327 -4.2052,-0.1168 -6.1733,0.6263 -0.7741,0.3296 -1.5229,0.7158 -2.2401,1.1556 -0.538,0.3264 -0.829,0.5558 -1.1201,0.7057 -0.5128,0.0131 -1.0253,-0.0373 -1.5257,-0.1499 -6.1735,-1.1468 -12.153,-2.9904 -18.4323,-2.3024 -16.6773,1.826 -3.9158,21.8063 6.1735,19.1511 3.8805,-1.0233 4.3214,-6.0514 1.9579,-9.527 z m 82.1251,23.5353 c 0,4.5606 -0.15,10.0034 -1.605,14.0524 -1.605,4.4636 -6.024,4.8517 -7.638,-1.3673 -1.314,-5.0547 0.926,-12.7645 4.816,-15.9578 2.01,-1.6408 3.078,-4.2872 4.356,-5.0988 z m 42.447,-21.6387 c 0,2.4347 0.221,4.3048 -1.764,5.0987 -2.196,0.8821 -3.131,-1.1468 -3.228,-3.0169 -0.158,-3.0345 1.403,-5.531 3.299,-4.79 0.661,0.2647 0.344,0.3176 0.564,1.1115 0.062,0.3352 0.195,0.6534 0.39,0.9333 0.194,0.2799 0.446,0.515 0.739,0.6898 z M 178.149,25.026 c 0,1.2262 0.238,2.7258 -0.362,3.8902 -0.246,0.4991 -0.644,0.9077 -1.137,1.1674 -0.492,0.2597 -1.054,0.3575 -1.605,0.2793 -1.403,-0.2117 -2.055,-1.8524 -2.064,-3.5991 0,-2.4788 1.235,-5.1781 3.431,-4.4106 0.661,0.2646 0.37,0.3175 0.59,1.1115 0.265,1.032 0.406,1.1114 1.147,1.5613 z m 64.125,0.0618 c 0,2.5582 0.309,4.2871 -1.658,5.0811 -2.205,0.8821 -3.202,-1.1468 -3.299,-3.0169 -0.158,-3.0346 1.403,-5.531 3.299,-4.79 0.661,0.2646 0.344,0.3176 0.564,1.1115 0.137,0.6618 0.53,1.2424 1.094,1.6143 z m -86.358,3.7579 c 1.243,-0.6793 3.527,-0.0706 4.162,0.4322 -0.811,0.6528 -2.698,1.5173 -4.039,1.1821 -1.129,-0.2559 -1.085,-1.0939 -0.123,-1.6143 z m -10.09,9.6593 c 0.071,2.4523 0.194,4.1549 -1.764,4.9488 -4.083,1.6408 -4.162,-6.5013 -1.525,-7.6834 2.099,-0.9527 2.099,0.988 2.099,0.988 0.054,0.3619 0.189,0.7069 0.396,1.0093 0.206,0.3024 0.477,0.5544 0.794,0.7373 z m 7.938,1.2085 c 0.079,-1.0232 0.811,-3.1668 1.764,-3.8372 0.167,-0.1326 0.374,-0.2045 0.587,-0.2042 0.213,3e-4 0.42,0.0729 0.587,0.206 0.167,0.133 0.284,0.3186 0.331,0.5265 0.048,0.208 0.024,0.4259 -0.068,0.6184 -0.329,0.6381 -0.781,1.2044 -1.331,1.6663 -0.55,0.4618 -1.185,0.81 -1.87,1.0242 z m -38.056,-0.0529 c 0.153,-1.0494 0.488,-2.0643 0.988,-2.9992 0.468,-0.7587 1.138,-1.1909 1.764,-0.8204 0.882,0.5293 0.309,1.5172 -0.326,2.1788 -0.696,0.6978 -1.519,1.2549 -2.426,1.6408 z m -16.3945,2.0113 c 1.8445,-0.5578 3.7835,-0.732 5.6975,-0.5117 -0.211,0.6559 -0.59,1.2451 -1.099,1.7093 -0.509,0.4642 -1.131,0.7873 -1.803,0.9371 -1.069,0.2334 -2.1761,0.2334 -3.2453,0 -2.2313,-0.5733 -1.1642,-1.5349 0.4498,-2.1347 z m -3.0603,-9.483 c 0.6967,0.1059 1.6845,-0.4322 2.5664,-0.5028 3.2544,-0.2646 6.2524,4.887 6.2444,8.3185 -1.217,0 -2.39,0 -3.81,0.1324 -1.235,0.1235 -6.3678,0.5557 -6.0239,2.8493 0.1941,1.2526 1.4817,1.7642 3.0515,2.0024 2.3154,0.2935 4.6674,0.018 6.8524,-0.8027 1.186,-0.6446 2.144,-1.6397 2.743,-2.8493 h 4.639 c 0.547,2.7787 2.178,3.6432 4.145,3.6432 3.263,0 4.145,-0.9263 5.785,-2.3112 0.071,0.5953 0.341,1.149 0.768,1.5705 0.426,0.4215 0.982,0.6857 1.578,0.7495 2.064,0.1147 4.313,-1.6761 5.9,-4.7459 l 0.944,-1.8966 c -0.185,2.5494 -0.414,5.5222 1.693,6.3955 2.285,0.9351 4.516,-0.7851 5.53,-1.8172 0.776,1.5173 2.831,2.5935 5.371,1.9848 2.399,-0.5822 3.193,-2.4259 3.731,-4.2078 0.348,0.3796 0.772,0.6817 1.245,0.8869 0.472,0.2051 0.982,0.3087 1.497,0.304 0.116,0.5171 0.338,1.0048 0.65,1.4328 0.313,0.4279 0.71,0.787 1.167,1.0548 1.176,0.6053 2.526,0.783 3.819,0.5028 -0.882,2.0113 -2.134,3.7403 -2.787,5.9015 -3.21,10.7532 3.995,17.3516 7.84,13.4437 6.112,-6.1749 5.01,-21.5152 5.168,-28.9692 1.652,-1.7545 3.129,-3.666 4.41,-5.7074 0.935,1.0585 1.764,2.2318 4.242,2.17 2.708,-0.0794 4.11,-1.4026 4.93,-4.2519 0.81,0.6894 1.83,1.0815 2.893,1.1115 0.15,1.1292 0.82,4.7724 5.203,2.3024 1.667,-1.085 2.646,-2.9993 3.598,-4.7547 l 0.627,-1.2967 c -0.159,2.4876 -0.468,5.7515 1.64,6.616 2.337,0.9703 4.665,-0.9792 5.397,-1.8172 0.469,0.7228 1.13,1.3 1.909,1.6664 0.78,0.3664 1.646,0.5072 2.501,0.4066 3.149,-0.15 3.872,-1.7025 4.745,-4.1902 0.944,0.8822 2.011,1.4291 4.189,0.7587 l 0.062,3.4227 h 2.822 c 0.291,-2.5406 1.146,-9.5447 4.498,-9.1654 0.247,1.6055 0.158,7.1982 0.247,9.0507 l 2.575,0.1499 c 0.441,-2.9904 2.734,-10.8414 4.762,-9.1653 0.997,0.838 -1.764,5.4427 0.459,7.9392 0.491,0.4733 1.094,0.8145 1.752,0.9919 0.659,0.1774 1.351,0.1852 2.014,0.0225 1.525,-0.3705 2.205,-1.3585 3.025,-1.9671 1.543,1.3761 2.31,2.5405 5.45,1.9936 2.496,-0.4411 2.858,-2.073 3.96,-4.0666 0.447,0.3866 0.966,0.6796 1.528,0.8614 0.563,0.1819 1.155,0.2489 1.744,0.1971 0.882,-0.1852 1.57,-0.8821 2.196,-2.4258 l -0.953,-0.9616 c -0.335,0.7057 -0.74,1.8701 -1.561,2.2406 -1.093,0.4852 -2.081,-0.5116 -2.434,-1.0762 -0.495,-0.883 -0.891,-1.8178 -1.182,-2.7875 -0.502,-0.8437 -1.239,-1.5231 -2.12,-1.9554 -0.882,-0.4323 -1.87,-0.5988 -2.845,-0.4793 -3.722,0.8821 -4.692,3.8902 -4.506,7.0042 -0.882,1.1467 -2.514,3.2991 -3.616,1.6319 -1.103,-1.6672 0,-3.5285 0.123,-5.1517 0.056,-0.6112 -0.085,-1.2244 -0.402,-1.7498 -0.318,-0.5253 -0.795,-0.9353 -1.362,-1.17 -3.527,-1.7643 -5.574,3.0345 -6.094,4.1901 -0.114,-2.2318 -0.644,-4.49 -2.646,-4.5694 -2.892,-0.0971 -3.801,2.4876 -5.035,4.6047 v -4.3225 h -2.32 c -0.264,1.1733 -1.252,3.9344 -1.764,5.2399 0.164,0.1218 0.355,0.2034 0.556,0.2382 0.286,-0.2062 0.544,-0.4494 0.767,-0.7234 -0.159,0.5823 -0.309,1.0762 -0.882,1.1468 -2.284,0.2999 -2.39,-1.429 -3.139,-3.2374 -1.588,-3.8108 -5.989,-4.0225 -8.493,-1.2703 -1.182,1.3056 -1.491,3.0257 -1.359,5.3457 -0.335,1.0057 -2.989,2.7876 -3.765,1.1027 -0.485,-1.0497 0,-7.11 0,-8.3538 h -3.211 c -0.199,2.5058 -1.04,4.918 -2.443,7.0041 -2.698,4.2696 -5.37,1.7643 -4.718,0.2382 0.732,-0.6704 2.267,-2.4258 0.194,-3.0522 -1.561,-0.4146 -1.896,0.5734 -1.825,2.2936 -1.5,0.0794 -2.196,-0.7234 -2.734,-2.6023 -0.206,-1.0111 -0.726,-1.9312 -1.487,-2.6284 -0.76,-0.6973 -1.722,-1.1359 -2.747,-1.253 -0.874,-0.0358 -1.745,0.1385 -2.538,0.5084 -0.793,0.3699 -1.486,0.9245 -2.021,1.6175 -1.323,1.6585 -1.367,3.1316 -0.935,5.5928 -0.543,0.896 -1.162,1.7432 -1.852,2.5317 -0.803,0.8821 -1.455,1.7113 -2.187,2.4259 -0.033,-1.3391 -0.514,-2.6285 -1.367,-3.6609 -0.607,-0.6803 -1.304,-1.2739 -2.073,-1.7643 3.043,-2.7169 5.292,-7.3305 4.718,-11.847 -1.084,-7.89509 -10.08,-10.7532 -13.661,-4.7723 -2.275,3.6696 -0.661,11.0619 5.01,9.8093 2.319,-0.5117 2.884,-2.8317 2.857,-5.5134 l -0.882,-0.1323 c -0.194,3.2992 -1.376,4.6577 -2.875,4.6577 -1.19,0 -2.452,-1.0586 -3.139,-2.7258 -1.606,-3.899 0.476,-8.46848 4.586,-7.9392 6.332,0.8116 7.628,12.835 2.196,18.1278 -0.706,-0.1676 -2.946,-1.085 -5.213,-0.741 -1.446,0.2206 -2.645,0.8204 -2.884,1.9672 -0.143,0.5112 -0.088,1.0578 0.154,1.5304 0.242,0.4726 0.653,0.8365 1.152,1.019 2.019,0.7851 5.124,-1.1115 6.253,-1.879 2.319,1.2879 2.698,3.1492 2.645,6.863 -1.584,1.4152 -3.081,2.9265 -4.48,4.5254 -1.137,1.2349 -2.187,2.3641 -2.919,2.3994 -1.808,0.1323 -2.469,-0.6881 -2.805,-2.2495 1.72,-1.1115 7.1,-3.8196 4.41,-6.4131 -1.058,-1.0233 -3.528,-0.8821 -5.512,1.1644 -0.644,0.6072 -1.158,1.34 -1.508,2.1532 -0.35,0.8132 -0.53,1.6896 -0.529,2.5751 -1.288,0.1587 -1.967,-0.6705 -2.434,-1.976 -0.259,-0.8113 -0.612,-1.5898 -1.05,-2.32 -0.352,-0.5699 -0.823,-1.0561 -1.383,-1.4248 -0.559,-0.3687 -1.191,-0.611 -1.853,-0.71 -0.856,-0.0688 -1.715,0.0638 -2.51,0.387 -0.795,0.3232 -1.503,0.8281 -2.068,1.4743 -1.27,1.3761 -1.517,3.061 -1.384,5.381 -0.309,1.0409 -2.981,2.7699 -3.766,1.085 -0.3,-1.0938 -0.124,-7.1099 -0.097,-8.3449 h -3.122 c -0.185,3.061 -2.011,8.0891 -4.613,9.1741 -0.337,0.1777 -0.719,0.2507 -1.097,0.2099 -0.379,-0.0409 -0.737,-0.1938 -1.028,-0.4392 -0.271,-0.2848 -0.456,-0.6408 -0.533,-1.0267 -0.076,-0.3858 -0.041,-0.7854 0.101,-1.1522 0.291,-0.591 1.764,-2.2935 -0.062,-2.6464 -1.826,-0.3528 -1.764,1.4644 -1.535,2.7876 -0.767,0.6792 -1.702,1.8701 -3.13,2.1877 -2.135,0.4763 -3.14,-0.5734 -3.431,-2.2318 0.644,-0.2647 7.144,-3.4845 4.63,-6.175 -0.345,-0.3316 -0.77,-0.5691 -1.233,-0.6895 -0.463,-0.1205 -0.95,-0.12 -1.413,0.0015 -1.778,0.4393 -3.311,1.5611 -4.268,3.1227 -0.482,0.7998 -0.744,1.7128 -0.759,2.6464 h -4.021 c -0.071,-1.3673 0.229,-4.3313 -3.995,-7.454 -2.228,-1.6841 -5.0298,-2.4197 -7.7967,-2.0466 -1.8432,0.1676 -1.3405,1.3938 -0.4321,1.5173 z"
       fill="#38AEE5"
       id="path3"
       style="fill:#384256;fill-opacity:1" />
    <path
       fill-rule="evenodd"
       clip-rule="evenodd"
       d="m 32.1992,34.6148 c 0,5.2928 0.5467,15.5079 -3.9687,18.4806 -5.0887,3.3433 -9.322,-2.5052 -8.4489,-8.0009 0.0618,-0.397 1.905,-5.0811 -1.8432,-5.7956 -2.9457,-0.5646 -4.7977,2.7611 -3.2984,4.6753 0.7849,0.9968 2.3635,1.0409 3.3513,5.8662 0.9878,4.8252 -2.0284,5.4163 -3.7217,4.6841 C 12.5763,53.7923 11.9677,50.6343 11.2269,48.623 10.4227,46.4692 9.40647,44.4008 8.19309,42.4481 L 4.48017,36.9789 c -2.47821,-2.9728 -5.52086,0 -4.127417,2.2141 1.084767,1.7908 5.970647,-0.1676 7.778597,10.418 0.26458,1.5173 0.67027,11.4148 0.38805,13.2938 -0.28221,1.8789 -1.1906,1.5349 -1.10241,3.3785 1.40227,1.7026 2.79571,1.7643 5.29161,2.6464 7.9902,2.867 12.5674,2.7523 21.4573,2.9728 5.0838,0.1054 10.1667,-0.2489 15.1867,-1.0585 1.6316,-0.247 11.1476,-2.9111 11.7826,-4.543 0.0882,-1.8701 -1.1201,-1.7643 -1.2171,-4.3489 -0.0617,-1.7643 0.097,-3.7579 0.1059,-5.5663 -0.0996,-3.4135 0.2895,-6.8236 1.1553,-10.1269 0.7673,-2.8846 2.6458,-5.4075 5.3621,-6.0161 4.1539,-0.9263 0.9613,-6.8718 -2.2665,-3.4756 l -4.5243,6.6071 c -2.6458,4.7195 -3.3955,10.4533 -5.6708,11.2384 -0.3711,0.1353 -0.766,0.1929 -1.1602,0.1693 -0.3942,-0.0237 -0.7794,-0.128 -1.1316,-0.3067 -0.3523,-0.1786 -0.6641,-0.4277 -0.9161,-0.7319 -0.2521,-0.3041 -0.439,-0.6568 -0.5491,-1.0361 -0.441,-1.7643 0.6702,-6.3955 3.0426,-8.2479 2.6458,-2.0466 -0.2557,-6.5366 -3.466,-4.9047 -3.2102,1.632 -0.5732,5.0458 -1.2876,8.5743 -0.6526,3.2463 -1.8697,5.9721 -5.5561,5.8927 -6.7997,-0.097 -7.1172,-10.1181 -7.1965,-15.552 -0.1588,-10.418 1.5433,-5.7427 1.9226,-9.4124 0.1004,-0.767 -0.0405,-1.5463 -0.4032,-2.2295 -0.3627,-0.6832 -0.9292,-1.2364 -1.6208,-1.5828 -0.6915,-0.3463 -1.4738,-0.4686 -2.238,-0.3497 -0.7642,0.1188 -1.4724,0.4728 -2.0262,1.0128 -0.5343,0.5686 -0.8862,1.2841 -1.0104,2.0545 -0.1241,0.7703 -0.0149,1.5602 0.3137,2.268 1.1112,2.2582 1.3934,0.5469 1.4023,4.3842 z"
       fill="#38AEE5"
       id="path4"
       style="fill:#384256;fill-opacity:1" />
  </g>
  <defs
     id="defs4">
    <clipPath
       id="clip0_850_2716">
      <rect
         width="250"
         height="71.902702"
         fill="#ffffff"
         id="rect4"
         x="0"
         y="0" />
    </clipPath>
  </defs>
</svg>
